<svg width="40" height="40" viewBox="0 0 40 40" fill="none" xmlns="http://www.w3.org/2000/svg">
<path d="M0 20C0 14.6957 2.10714 9.60859 5.85786 5.85786C9.60859 2.10714 14.6957 0 20 0C25.3043 0 30.3914 2.10714 34.1421 5.85786C37.8929 9.60859 40 14.6957 40 20C40 25.3043 37.8929 30.3914 34.1421 34.1421C30.3914 37.8929 25.3043 40 20 40C14.6957 40 9.60859 37.8929 5.85786 34.1421C2.10714 30.3914 0 25.3043 0 20Z" fill="black" fill-opacity="0.73"/>
<path fill-rule="evenodd" clip-rule="evenodd" d="M16.73 39.73C12.7214 39.0716 9.00924 37.205 6.09 34.38L24.11 17.84L13.81 20.34C13.1282 20.5076 12.4199 20.5378 11.7263 20.4288C11.0327 20.3198 10.3678 20.0739 9.77021 19.7053C9.17265 19.3367 8.65444 18.8528 8.24579 18.2819C7.83714 17.711 7.54623 17.0645 7.39 16.38C7.0733 14.9872 7.31605 13.5257 8.066 12.3101C8.81595 11.0945 10.0132 10.2218 11.4 9.88L32.84 4.67C35.4512 6.85647 37.4607 9.67352 38.6783 12.8542C39.8958 16.0348 40.2809 19.4737 39.7972 22.8449C39.3135 26.216 37.9769 29.4078 35.9141 32.1178C33.8513 34.8277 31.1306 36.966 28.01 38.33C27.95 37.62 28.02 36.88 28.27 36.16L31.67 26.02L16.73 39.73Z" fill="white" fill-opacity="0.94"/>
</svg>
