<svg width="100" height="100" viewBox="0 0 100 100" fill="none" xmlns="http://www.w3.org/2000/svg">
<path d="M46.9648 1.07812C45.4972 1.08709 44.0446 1.55219 42.7227 2.3164C40.9601 3.33536 39.3523 4.87155 37.8516 6.80078C34.8501 10.6592 32.2778 16.1237 30.5273 22.5117L30.707 22.5625L19.7578 26.1289C19.3984 26.2462 19.0795 26.4629 18.8383 26.7539C18.597 27.045 18.4431 27.3985 18.3945 27.7734L11.5 81.3945C11.4353 81.8998 11.5658 82.4106 11.8649 82.8229C12.164 83.2352 12.609 83.5179 13.1094 83.6133L62.2773 92.9688C62.4229 92.9955 62.5709 93.0059 62.7188 93C62.8931 93.0084 63.0677 92.994 63.2383 92.957L89.918 87.0508C90.4098 86.9416 90.8424 86.6509 91.1291 86.2366C91.4159 85.8224 91.5358 85.3152 91.4648 84.8164C91.4648 84.8164 89.1284 68.605 86.7852 52.3359C85.6135 44.2014 84.438 36.0506 83.5547 29.9062C83.113 26.8341 82.7447 24.2623 82.4844 22.4453C82.3542 21.5368 82.2507 20.8196 82.1797 20.3203C82.1442 20.0707 82.1165 19.8724 82.0977 19.7383C82.0789 19.6041 82.0532 19.3826 82.0742 19.5781C82.0522 19.376 81.9995 19.1784 81.918 18.9922C81.4631 17.9487 80.4969 17.3339 79.875 17.1211C79.6664 17.0491 79.4473 17.0122 79.2266 17.0117C79.4726 17.0117 79.1795 17.0098 78.9766 16.9961C78.7736 16.9824 78.4936 16.9616 78.1641 16.9375C77.505 16.8892 76.6498 16.8225 75.8047 16.7578C74.4897 16.6572 73.7122 16.5983 73.2031 16.5586C72.8455 16.1924 72.31 15.6402 71.3594 14.6758C70.7476 14.055 70.1185 13.4175 69.6016 12.9023C69.1402 12.4426 68.8756 12.1795 68.5586 11.9023C68.1276 11.4697 67.6311 11.1655 67.0078 11.0547H67.0039C66.8721 11.0215 66.7373 11.0019 66.6016 10.9961C66.431 10.99 66.2603 11.0057 66.0938 11.043C66.0291 11.0567 65.9653 11.0737 65.9023 11.0937C65.8919 11.0963 65.8815 11.0989 65.8711 11.1016L62.2812 12.2734C61.741 10.2125 61.0008 8.38845 59.9688 6.90234C58.7848 5.19751 57.1506 3.88692 55.1641 3.46093C54.2155 3.25788 53.2672 3.32411 52.3555 3.55468C51.2761 2.40061 49.971 1.55607 48.4336 1.22656C47.9455 1.12214 47.4541 1.07513 46.9648 1.07812ZM46.9648 5.07031C47.1825 5.06999 47.3903 5.0934 47.5938 5.13671C47.9405 5.21104 48.2851 5.37924 48.625 5.59765C47.7657 6.32614 46.9501 7.17891 46.168 8.15625C43.7974 11.1184 41.6946 15.1344 39.9258 19.5586L35.168 21.1094C36.7556 16.2291 38.8247 12.0642 41.0078 9.25781C42.2818 7.62004 43.5822 6.43889 44.7266 5.77734C45.5837 5.28182 46.3118 5.07127 46.9648 5.07031ZM54.7734 7.51953C55.4236 7.77394 56.0537 8.27656 56.6836 9.18359C57.3854 10.1942 58.0109 11.6864 58.4727 13.5117L56.418 14.1836C56.1103 11.6918 55.5718 9.45174 54.7734 7.51953ZM50.9961 8.84765C51.7251 10.5496 52.2746 12.7989 52.543 15.4453L44.9961 17.9062C46.3444 15.0334 47.8184 12.494 49.2891 10.6562C49.8712 9.92883 50.4441 9.34223 50.9961 8.84765ZM64.3594 15.8047L60.9141 88.6367L15.707 80.0352L22.1992 29.5391L64.3594 15.8047ZM68.293 17.2617C68.3702 17.34 68.4347 17.4062 68.5117 17.4844C69.7261 18.7164 70.8711 19.8906 70.8711 19.8906C71.2102 20.2383 71.6642 20.4507 72.1484 20.4883C72.1484 20.4883 73.8052 20.6164 75.5 20.7461C76.3474 20.8109 77.2037 20.8769 77.8711 20.9258C78.013 20.9362 78.1036 20.9404 78.2266 20.9492C78.2976 21.4485 78.3972 22.1308 78.5234 23.0117C78.7839 24.83 79.1559 27.4041 79.5977 30.4766C80.4811 36.6216 81.6526 44.7715 82.8242 52.9062C85.035 68.256 86.996 81.8703 87.2383 83.5508L64.9258 88.4844L68.293 17.2617ZM47.0078 31.0117C40.8157 31.0149 35.9281 33.1751 32.6875 36.5469C29.4445 39.9211 27.8594 44.4144 27.8594 48.9258C27.8594 54.4028 30.7778 57.653 33.2344 59.7578C34.4627 60.8102 35.5654 61.6669 36.2461 62.4414C36.9267 63.2159 37.2109 63.7656 37.2109 64.6953C37.2109 64.9427 37.0832 65.3762 36.875 65.625C36.6668 65.8738 36.4666 66.0508 35.7773 66.0508C34.6377 66.0508 32.8295 65.2949 31.4258 64.4219C30.0221 63.5489 29.0469 62.6875 29.0469 62.6875C28.795 62.4649 28.4911 62.3093 28.1632 62.2352C27.8353 62.1611 27.494 62.1708 27.1709 62.2635C26.8478 62.3561 26.5532 62.5288 26.3144 62.7654C26.0756 63.002 25.9003 63.2949 25.8047 63.6172L23.5664 71.1445C23.4752 71.4518 23.4592 71.7765 23.5197 72.0912C23.5802 72.406 23.7154 72.7016 23.9141 72.9531C23.9141 72.9531 28.8175 79.0056 38.0156 79.0078C41.9875 79.0078 45.5909 77.4254 48.1094 74.6406C50.6279 71.8559 52.0508 67.9328 52.0508 63.375C52.0508 57.3867 48.6156 53.6218 45.5898 51.1797C44.077 49.9586 42.6464 48.9812 41.7344 48.168C40.8223 47.3547 40.6133 46.9078 40.6133 46.6406C40.6133 46.4384 40.6652 45.8866 40.9727 45.4805C41.2801 45.0744 41.8576 44.5195 43.9883 44.5195C46.808 44.5195 49.3438 45.8516 49.3438 45.8516C49.6019 45.9921 49.8878 46.074 50.1812 46.0915C50.4746 46.109 50.7683 46.0616 51.0413 45.9527C51.3143 45.8438 51.5599 45.676 51.7607 45.4614C51.9615 45.2468 52.1126 44.9906 52.2031 44.7109L55.3867 34.8945C55.5258 34.4655 55.5158 34.0021 55.3584 33.5795C55.201 33.1569 54.9054 32.7999 54.5195 32.5664C54.5195 32.5664 53.6922 32.0858 52.4297 31.707C51.1708 31.3294 49.3473 30.9854 47.0078 31.0117ZM47.043 35.0039C44.5 32.5 34.8733 42.5099 35.7773 42.7617L49.0664 41.418C47.7578 40.9694 45.9814 40.5195 43.9883 40.5195C40.997 40.5195 42.8324 39.9676 41.7344 41.418C40.6363 42.8684 39.0703 36.1204 39.0703 36.7321C39.0703 38.7029 37.8377 61.1362 39.0703 62.2352C40.3029 63.3342 43.7979 66.7295 45.1445 67.8164C47.8378 69.9903 39.0703 57.6955 39.0703 62.2352C39.0703 65.9694 46.2358 69.8035 44.4648 71.7617C41.9648 72.7617 40.9577 75.0078 38.0156 75.0078C31.5025 75.0063 28.5659 71.9787 27.7617 71.0742L28.8359 67.4648C29.0858 67.6346 30.4414 73.5859 29.0469 66.7617C21.9336 71.8984 36.2461 76.5 39.0703 74.9593C40.817 74.9593 43.5661 72.8355 44.4648 71.7617C47.4648 70.7617 41.2109 65.8739 41.2109 64.6953C41.2109 62.7 40.3225 61.0212 39.25 59.8008C38.1775 58.5804 41.7422 43.2188 36.9648 48.7617C34.7464 46.861 38.6539 52.355 38.6539 48.168C38.6539 44.5913 46.6024 40.3255 49.0664 37.7617C51.5304 35.198 46.9648 38.2617 47.0195 35.0078C42 35 46.168 41.711 47.043 35.0039Z" fill="black"/>
</svg>
